# xmcd
#
# Track frame offsets:
#	150
#	13847
#	36860
#	47785
#	60500
#	76120
#	87572
#	101155
#	109717
#	124702
#
# Disc length: 1868 seconds
#
# Revision: 1
# Processed by: cddbd v1.5.2PL0 Copyright (c) Steve Scherf et al.
# Submitted via: audiograbber 1.83.01
#
DISCID=7c074a0a
DTITLE=Duke Ellington - Celebrating The Best of Jazz
DYEAR=2001
DGENRE=Jazz
TTITLE0=Take The "A" Train
TTITLE1=Mood Indigo
TTITLE2=Perdido
TTITLE3=Caravan
TTITLE4=Honeysuckle Rose
TTITLE5=How High The Moon
TTITLE6=Sophisticated Lady
TTITLE7=Tea For Two
TTITLE8=Just Squeeze Me
TTITLE9=Moon Mist
EXTD=
EXTT0=
EXTT1=
EXTT2=
EXTT3=
EXTT4=
EXTT5=
EXTT6=
EXTT7=
EXTT8=
EXTT9=
PLAYORDER=
